<svg width="330" height="55" viewBox="0 0 330 95" fill="none" xmlns="http://www.w3.org/2000/svg">
<path d="M43.2065 73L39.4625 58.12H18.6305L14.8865 73H0.1985L20.6465 6.568H37.8305L58.1825 73H43.2065ZM21.3185 47.656H36.7745L28.9985 17.032L21.3185 47.656ZM76.7045 74.536C72.5445 74.536 69.3125 73.352 67.0085 70.984C64.7045 68.552 63.5525 65.128 63.5525 60.712V1.86399L77.1845 0.327997V60.328C77.1845 62.568 78.1125 63.688 79.9685 63.688C80.9925 63.688 81.8885 63.496 82.6565 63.112L85.4405 72.808C82.8165 73.96 79.9045 74.536 76.7045 74.536ZM117.709 73.096C115.661 79.56 112.429 84.552 108.013 88.072C103.661 91.592 97.7413 93.608 90.2533 94.12L88.8133 84.328C93.6773 83.688 97.2293 82.536 99.4693 80.872C101.773 79.208 103.661 76.584 105.133 73H100.429L84.5892 22.12H99.0853L109.261 64.168L120.013 22.12H134.125L117.709 73.096ZM156.772 20.584C163.94 20.584 170.084 22.632 175.204 26.728L170.02 34.504C165.732 31.816 161.508 30.472 157.348 30.472C155.108 30.472 153.38 30.888 152.164 31.72C150.948 32.552 150.34 33.672 150.34 35.08C150.34 36.104 150.596 36.968 151.108 37.672C151.684 38.376 152.708 39.048 154.18 39.688C155.716 40.328 157.988 41.096 160.996 41.992C166.372 43.464 170.372 45.448 172.996 47.944C175.62 50.376 176.932 53.736 176.932 58.024C176.932 61.416 175.94 64.36 173.956 66.856C172.036 69.352 169.412 71.272 166.084 72.616C162.756 73.896 159.044 74.536 154.948 74.536C150.66 74.536 146.756 73.896 143.236 72.616C139.716 71.272 136.708 69.448 134.212 67.144L140.932 59.656C145.22 62.984 149.764 64.648 154.564 64.648C157.124 64.648 159.14 64.168 160.612 63.208C162.148 62.184 162.916 60.808 162.916 59.08C162.916 57.736 162.628 56.68 162.052 55.912C161.476 55.144 160.42 54.44 158.884 53.8C157.348 53.096 154.948 52.296 151.684 51.4C146.564 49.992 142.756 48.008 140.26 45.448C137.828 42.824 136.612 39.592 136.612 35.752C136.612 32.872 137.444 30.28 139.108 27.976C140.772 25.672 143.108 23.88 146.116 22.6C149.188 21.256 152.74 20.584 156.772 20.584ZM201.96 20.584C209.128 20.584 215.272 22.632 220.392 26.728L215.208 34.504C210.92 31.816 206.696 30.472 202.536 30.472C200.296 30.472 198.568 30.888 197.352 31.72C196.136 32.552 195.528 33.672 195.528 35.08C195.528 36.104 195.784 36.968 196.296 37.672C196.872 38.376 197.896 39.048 199.368 39.688C200.904 40.328 203.176 41.096 206.184 41.992C211.56 43.464 215.56 45.448 218.184 47.944C220.808 50.376 222.12 53.736 222.12 58.024C222.12 61.416 221.128 64.36 219.144 66.856C217.224 69.352 214.6 71.272 211.272 72.616C207.944 73.896 204.232 74.536 200.136 74.536C195.848 74.536 191.944 73.896 188.424 72.616C184.904 71.272 181.896 69.448 179.4 67.144L186.12 59.656C190.408 62.984 194.952 64.648 199.752 64.648C202.312 64.648 204.328 64.168 205.8 63.208C207.336 62.184 208.104 60.808 208.104 59.08C208.104 57.736 207.816 56.68 207.24 55.912C206.664 55.144 205.608 54.44 204.072 53.8C202.536 53.096 200.136 52.296 196.872 51.4C191.752 49.992 187.944 48.008 185.448 45.448C183.016 42.824 181.8 39.592 181.8 35.752C181.8 32.872 182.632 30.28 184.296 27.976C185.96 25.672 188.296 23.88 191.304 22.6C194.376 21.256 197.928 20.584 201.96 20.584ZM252.409 20.584C260.025 20.584 265.977 22.984 270.265 27.784C274.553 32.52 276.697 39.112 276.697 47.56C276.697 52.936 275.705 57.672 273.721 61.768C271.801 65.8 268.985 68.936 265.273 71.176C261.625 73.416 257.305 74.536 252.313 74.536C244.697 74.536 238.713 72.168 234.361 67.432C230.073 62.632 227.929 56.008 227.929 47.56C227.929 42.184 228.889 37.48 230.809 33.448C232.793 29.352 235.609 26.184 239.257 23.944C242.969 21.704 247.353 20.584 252.409 20.584ZM252.409 30.76C248.953 30.76 246.361 32.136 244.633 34.888C242.969 37.576 242.137 41.8 242.137 47.56C242.137 53.32 242.969 57.576 244.633 60.328C246.361 63.016 248.921 64.36 252.313 64.36C255.705 64.36 258.233 63.016 259.897 60.328C261.625 57.576 262.489 53.32 262.489 47.56C262.489 41.8 261.657 37.576 259.993 34.888C258.329 32.136 255.801 30.76 252.409 30.76ZM315.48 20.584C319.96 20.584 323.448 21.96 325.944 24.712C328.44 27.4 329.688 31.144 329.688 35.944V73H316.056V38.248C316.056 35.496 315.576 33.576 314.616 32.488C313.72 31.336 312.344 30.76 310.488 30.76C308.568 30.76 306.808 31.368 305.208 32.584C303.672 33.736 302.168 35.496 300.696 37.864V73H287.064V22.12H298.872L299.928 28.552C302.04 25.928 304.344 23.944 306.84 22.6C309.4 21.256 312.28 20.584 315.48 20.584Z" fill="#141414"/>
</svg>
